<mxfile host="app.diagrams.net" modified="2021-10-13T08:28:26.525Z" agent="5.0 (Windows)" etag="1i659LY3pUfj71fECUUs" version="15.5.2" type="github">
  <diagram id="Vmgq69G5zivHSpTC17q_" name="Page-1">
    <mxGraphModel dx="782" dy="352" grid="1" gridSize="10" guides="1" tooltips="1" connect="1" arrows="1" fold="1" page="1" pageScale="1" pageWidth="850" pageHeight="1100" math="0" shadow="0">
      <root>
        <mxCell id="0" />
        <mxCell id="1" parent="0" />
        <mxCell id="4fzQf8-RqGM_sW67UMcs-1" value="" style="endArrow=none;html=1;rounded=0;" edge="1" parent="1">
          <mxGeometry width="50" height="50" relative="1" as="geometry">
            <mxPoint x="20" y="80" as="sourcePoint" />
            <mxPoint x="810" y="80" as="targetPoint" />
          </mxGeometry>
        </mxCell>
        <mxCell id="4fzQf8-RqGM_sW67UMcs-2" value="" style="endArrow=none;dashed=1;html=1;rounded=0;" edge="1" parent="1">
          <mxGeometry width="50" height="50" relative="1" as="geometry">
            <mxPoint x="160" y="910" as="sourcePoint" />
            <mxPoint x="160" y="20" as="targetPoint" />
          </mxGeometry>
        </mxCell>
        <mxCell id="4fzQf8-RqGM_sW67UMcs-3" value="" style="endArrow=none;dashed=1;html=1;rounded=0;" edge="1" parent="1">
          <mxGeometry width="50" height="50" relative="1" as="geometry">
            <mxPoint x="320" y="900" as="sourcePoint" />
            <mxPoint x="320" y="20" as="targetPoint" />
          </mxGeometry>
        </mxCell>
        <mxCell id="4fzQf8-RqGM_sW67UMcs-4" value="" style="endArrow=none;dashed=1;html=1;rounded=0;" edge="1" parent="1">
          <mxGeometry width="50" height="50" relative="1" as="geometry">
            <mxPoint x="445" y="900" as="sourcePoint" />
            <mxPoint x="445" y="20" as="targetPoint" />
          </mxGeometry>
        </mxCell>
        <mxCell id="4fzQf8-RqGM_sW67UMcs-5" value="" style="endArrow=none;dashed=1;html=1;rounded=0;" edge="1" parent="1">
          <mxGeometry width="50" height="50" relative="1" as="geometry">
            <mxPoint x="550" y="900" as="sourcePoint" />
            <mxPoint x="550" y="11" as="targetPoint" />
          </mxGeometry>
        </mxCell>
        <mxCell id="4fzQf8-RqGM_sW67UMcs-6" value="" style="endArrow=none;dashed=1;html=1;rounded=0;" edge="1" parent="1">
          <mxGeometry width="50" height="50" relative="1" as="geometry">
            <mxPoint x="670" y="900" as="sourcePoint" />
            <mxPoint x="670" y="30" as="targetPoint" />
          </mxGeometry>
        </mxCell>
        <mxCell id="4fzQf8-RqGM_sW67UMcs-7" value="&lt;font style=&quot;font-size: 14px&quot;&gt;申请人&lt;/font&gt;" style="text;html=1;align=center;verticalAlign=middle;resizable=0;points=[];autosize=1;strokeColor=none;fillColor=none;" vertex="1" parent="1">
          <mxGeometry x="55" y="50" width="60" height="20" as="geometry" />
        </mxCell>
        <mxCell id="4fzQf8-RqGM_sW67UMcs-8" value="&lt;font style=&quot;font-size: 14px&quot;&gt;审批系统&lt;/font&gt;" style="text;html=1;align=center;verticalAlign=middle;resizable=0;points=[];autosize=1;strokeColor=none;fillColor=none;" vertex="1" parent="1">
          <mxGeometry x="195" y="50" width="70" height="20" as="geometry" />
        </mxCell>
        <mxCell id="4fzQf8-RqGM_sW67UMcs-9" value="&lt;font style=&quot;font-size: 14px&quot;&gt;开发部门&lt;/font&gt;" style="text;html=1;align=center;verticalAlign=middle;resizable=0;points=[];autosize=1;strokeColor=none;fillColor=none;" vertex="1" parent="1">
          <mxGeometry x="345" y="50" width="70" height="20" as="geometry" />
        </mxCell>
        <mxCell id="4fzQf8-RqGM_sW67UMcs-10" value="&lt;font style=&quot;font-size: 14px&quot;&gt;其他部门&lt;/font&gt;" style="text;html=1;align=center;verticalAlign=middle;resizable=0;points=[];autosize=1;strokeColor=none;fillColor=none;" vertex="1" parent="1">
          <mxGeometry x="455" y="50" width="70" height="20" as="geometry" />
        </mxCell>
        <mxCell id="4fzQf8-RqGM_sW67UMcs-11" value="&lt;font style=&quot;font-size: 14px&quot;&gt;公司分管领导&lt;/font&gt;" style="text;html=1;align=center;verticalAlign=middle;resizable=0;points=[];autosize=1;strokeColor=none;fillColor=none;" vertex="1" parent="1">
          <mxGeometry x="560" y="50" width="100" height="20" as="geometry" />
        </mxCell>
        <mxCell id="4fzQf8-RqGM_sW67UMcs-12" value="&lt;font style=&quot;font-size: 14px&quot;&gt;运营部门&lt;/font&gt;" style="text;html=1;align=center;verticalAlign=middle;resizable=0;points=[];autosize=1;strokeColor=none;fillColor=none;" vertex="1" parent="1">
          <mxGeometry x="705" y="50" width="70" height="20" as="geometry" />
        </mxCell>
        <mxCell id="4fzQf8-RqGM_sW67UMcs-15" value="" style="edgeStyle=orthogonalEdgeStyle;rounded=0;orthogonalLoop=1;jettySize=auto;html=1;" edge="1" parent="1" source="4fzQf8-RqGM_sW67UMcs-13" target="4fzQf8-RqGM_sW67UMcs-14">
          <mxGeometry relative="1" as="geometry" />
        </mxCell>
        <mxCell id="4fzQf8-RqGM_sW67UMcs-13" value="&lt;font style=&quot;font-size: 14px&quot;&gt;开始&lt;/font&gt;" style="ellipse;whiteSpace=wrap;html=1;" vertex="1" parent="1">
          <mxGeometry x="52.5" y="95" width="65" height="50" as="geometry" />
        </mxCell>
        <mxCell id="4fzQf8-RqGM_sW67UMcs-20" value="" style="edgeStyle=orthogonalEdgeStyle;rounded=0;orthogonalLoop=1;jettySize=auto;html=1;" edge="1" parent="1" source="4fzQf8-RqGM_sW67UMcs-14" target="4fzQf8-RqGM_sW67UMcs-16">
          <mxGeometry relative="1" as="geometry" />
        </mxCell>
        <mxCell id="4fzQf8-RqGM_sW67UMcs-22" value="" style="edgeStyle=orthogonalEdgeStyle;rounded=0;orthogonalLoop=1;jettySize=auto;html=1;" edge="1" parent="1" source="4fzQf8-RqGM_sW67UMcs-14" target="4fzQf8-RqGM_sW67UMcs-21">
          <mxGeometry relative="1" as="geometry" />
        </mxCell>
        <mxCell id="4fzQf8-RqGM_sW67UMcs-14" value="&lt;font style=&quot;font-size: 14px&quot;&gt;起草发布单（输入必填信息）&lt;/font&gt;" style="whiteSpace=wrap;html=1;" vertex="1" parent="1">
          <mxGeometry x="25" y="166" width="120" height="40" as="geometry" />
        </mxCell>
        <mxCell id="4fzQf8-RqGM_sW67UMcs-16" value="&lt;font style=&quot;font-size: 14px&quot;&gt;必填校验&lt;/font&gt;" style="rhombus;whiteSpace=wrap;html=1;" vertex="1" parent="1">
          <mxGeometry x="190" y="146" width="80" height="80" as="geometry" />
        </mxCell>
        <mxCell id="4fzQf8-RqGM_sW67UMcs-24" value="" style="edgeStyle=orthogonalEdgeStyle;rounded=0;orthogonalLoop=1;jettySize=auto;html=1;" edge="1" parent="1" source="4fzQf8-RqGM_sW67UMcs-21" target="4fzQf8-RqGM_sW67UMcs-23">
          <mxGeometry relative="1" as="geometry" />
        </mxCell>
        <mxCell id="4fzQf8-RqGM_sW67UMcs-21" value="&lt;div&gt;&lt;font style=&quot;font-size: 14px&quot;&gt;评估发布风险&lt;/font&gt;&lt;/div&gt;&lt;div&gt;&lt;font style=&quot;font-size: 14px&quot;&gt;选择审批层级&lt;/font&gt;&lt;/div&gt;" style="whiteSpace=wrap;html=1;" vertex="1" parent="1">
          <mxGeometry x="25" y="226" width="120" height="40" as="geometry" />
        </mxCell>
        <mxCell id="4fzQf8-RqGM_sW67UMcs-77" value="" style="edgeStyle=orthogonalEdgeStyle;rounded=0;orthogonalLoop=1;jettySize=auto;html=1;" edge="1" parent="1" source="4fzQf8-RqGM_sW67UMcs-23" target="4fzQf8-RqGM_sW67UMcs-75">
          <mxGeometry relative="1" as="geometry" />
        </mxCell>
        <mxCell id="4fzQf8-RqGM_sW67UMcs-23" value="&lt;font style=&quot;font-size: 14px&quot;&gt;提交&lt;/font&gt;" style="whiteSpace=wrap;html=1;" vertex="1" parent="1">
          <mxGeometry x="25" y="285" width="120" height="30" as="geometry" />
        </mxCell>
        <mxCell id="4fzQf8-RqGM_sW67UMcs-28" value="" style="edgeStyle=orthogonalEdgeStyle;rounded=0;orthogonalLoop=1;jettySize=auto;html=1;strokeColor=#00FF00;" edge="1" parent="1" source="4fzQf8-RqGM_sW67UMcs-25" target="4fzQf8-RqGM_sW67UMcs-27">
          <mxGeometry relative="1" as="geometry" />
        </mxCell>
        <mxCell id="4fzQf8-RqGM_sW67UMcs-25" value="&lt;div&gt;&lt;font style=&quot;font-size: 14px&quot;&gt;是否&lt;/font&gt;&lt;/div&gt;&lt;div&gt;&lt;font style=&quot;font-size: 14px&quot;&gt;需要审批&lt;/font&gt;&lt;/div&gt;" style="rhombus;whiteSpace=wrap;html=1;" vertex="1" parent="1">
          <mxGeometry x="180" y="320" width="80" height="80" as="geometry" />
        </mxCell>
        <mxCell id="4fzQf8-RqGM_sW67UMcs-68" value="" style="edgeStyle=orthogonalEdgeStyle;rounded=0;orthogonalLoop=1;jettySize=auto;html=1;" edge="1" parent="1" source="4fzQf8-RqGM_sW67UMcs-27" target="4fzQf8-RqGM_sW67UMcs-67">
          <mxGeometry relative="1" as="geometry" />
        </mxCell>
        <mxCell id="4fzQf8-RqGM_sW67UMcs-27" value="&lt;font style=&quot;font-size: 14px&quot;&gt;运维主管审核&lt;/font&gt;" style="whiteSpace=wrap;html=1;" vertex="1" parent="1">
          <mxGeometry x="710" y="342.5" width="120" height="35" as="geometry" />
        </mxCell>
        <mxCell id="4fzQf8-RqGM_sW67UMcs-32" value="" style="edgeStyle=orthogonalEdgeStyle;rounded=0;orthogonalLoop=1;jettySize=auto;html=1;" edge="1" parent="1" source="4fzQf8-RqGM_sW67UMcs-29" target="4fzQf8-RqGM_sW67UMcs-31">
          <mxGeometry relative="1" as="geometry" />
        </mxCell>
        <mxCell id="4fzQf8-RqGM_sW67UMcs-45" value="" style="edgeStyle=orthogonalEdgeStyle;rounded=0;orthogonalLoop=1;jettySize=auto;html=1;" edge="1" parent="1" source="4fzQf8-RqGM_sW67UMcs-29" target="4fzQf8-RqGM_sW67UMcs-44">
          <mxGeometry relative="1" as="geometry" />
        </mxCell>
        <mxCell id="4fzQf8-RqGM_sW67UMcs-29" value="是否需要开发部门领导审批" style="rhombus;whiteSpace=wrap;html=1;" vertex="1" parent="1">
          <mxGeometry x="180" y="460" width="80" height="80" as="geometry" />
        </mxCell>
        <mxCell id="4fzQf8-RqGM_sW67UMcs-34" value="" style="edgeStyle=orthogonalEdgeStyle;rounded=0;orthogonalLoop=1;jettySize=auto;html=1;" edge="1" parent="1" source="4fzQf8-RqGM_sW67UMcs-31" target="4fzQf8-RqGM_sW67UMcs-33">
          <mxGeometry relative="1" as="geometry" />
        </mxCell>
        <mxCell id="4fzQf8-RqGM_sW67UMcs-53" value="" style="edgeStyle=orthogonalEdgeStyle;rounded=0;orthogonalLoop=1;jettySize=auto;html=1;" edge="1" parent="1" source="4fzQf8-RqGM_sW67UMcs-31" target="4fzQf8-RqGM_sW67UMcs-52">
          <mxGeometry relative="1" as="geometry" />
        </mxCell>
        <mxCell id="4fzQf8-RqGM_sW67UMcs-31" value="&lt;font style=&quot;font-size: 14px&quot;&gt;是否需要其他部门审批&lt;/font&gt;" style="rhombus;whiteSpace=wrap;html=1;" vertex="1" parent="1">
          <mxGeometry x="180" y="580" width="80" height="80" as="geometry" />
        </mxCell>
        <mxCell id="4fzQf8-RqGM_sW67UMcs-61" value="" style="edgeStyle=orthogonalEdgeStyle;rounded=0;orthogonalLoop=1;jettySize=auto;html=1;" edge="1" parent="1" source="4fzQf8-RqGM_sW67UMcs-33" target="4fzQf8-RqGM_sW67UMcs-60">
          <mxGeometry relative="1" as="geometry" />
        </mxCell>
        <mxCell id="4fzQf8-RqGM_sW67UMcs-33" value="是否需要公司分管领导审批" style="rhombus;whiteSpace=wrap;html=1;" vertex="1" parent="1">
          <mxGeometry x="180" y="690" width="80" height="80" as="geometry" />
        </mxCell>
        <mxCell id="4fzQf8-RqGM_sW67UMcs-42" value="" style="edgeStyle=orthogonalEdgeStyle;rounded=0;orthogonalLoop=1;jettySize=auto;html=1;entryX=0.5;entryY=1;entryDx=0;entryDy=0;strokeColor=#FF0000;" edge="1" parent="1" source="4fzQf8-RqGM_sW67UMcs-35" target="4fzQf8-RqGM_sW67UMcs-23">
          <mxGeometry relative="1" as="geometry" />
        </mxCell>
        <mxCell id="4fzQf8-RqGM_sW67UMcs-35" value="&lt;font style=&quot;font-size: 14px&quot;&gt;开发主管审批&lt;/font&gt;" style="rounded=0;whiteSpace=wrap;html=1;" vertex="1" parent="1">
          <mxGeometry x="340" y="410" width="90" height="40" as="geometry" />
        </mxCell>
        <mxCell id="4fzQf8-RqGM_sW67UMcs-37" value="" style="endArrow=classic;html=1;rounded=0;exitX=0.5;exitY=1;exitDx=0;exitDy=0;entryX=0;entryY=0.25;entryDx=0;entryDy=0;" edge="1" parent="1" source="4fzQf8-RqGM_sW67UMcs-25" target="4fzQf8-RqGM_sW67UMcs-35">
          <mxGeometry width="50" height="50" relative="1" as="geometry">
            <mxPoint x="420" y="470" as="sourcePoint" />
            <mxPoint x="470" y="420" as="targetPoint" />
            <Array as="points">
              <mxPoint x="220" y="420" />
            </Array>
          </mxGeometry>
        </mxCell>
        <mxCell id="4fzQf8-RqGM_sW67UMcs-38" value="" style="endArrow=classic;html=1;rounded=0;exitX=0;exitY=0.75;exitDx=0;exitDy=0;entryX=0.5;entryY=0;entryDx=0;entryDy=0;strokeColor=#00FF00;" edge="1" parent="1" source="4fzQf8-RqGM_sW67UMcs-35" target="4fzQf8-RqGM_sW67UMcs-29">
          <mxGeometry width="50" height="50" relative="1" as="geometry">
            <mxPoint x="420" y="470" as="sourcePoint" />
            <mxPoint x="470" y="420" as="targetPoint" />
            <Array as="points">
              <mxPoint x="220" y="440" />
            </Array>
          </mxGeometry>
        </mxCell>
        <mxCell id="4fzQf8-RqGM_sW67UMcs-39" value="是" style="text;html=1;align=center;verticalAlign=middle;resizable=0;points=[];autosize=1;strokeColor=none;fillColor=none;" vertex="1" parent="1">
          <mxGeometry x="230" y="400" width="30" height="20" as="geometry" />
        </mxCell>
        <mxCell id="4fzQf8-RqGM_sW67UMcs-40" value="否" style="text;html=1;align=center;verticalAlign=middle;resizable=0;points=[];autosize=1;strokeColor=none;fillColor=none;" vertex="1" parent="1">
          <mxGeometry x="270" y="330" width="30" height="20" as="geometry" />
        </mxCell>
        <mxCell id="4fzQf8-RqGM_sW67UMcs-41" value="通过" style="text;html=1;align=center;verticalAlign=middle;resizable=0;points=[];autosize=1;strokeColor=none;fillColor=none;" vertex="1" parent="1">
          <mxGeometry x="234" y="440" width="40" height="20" as="geometry" />
        </mxCell>
        <mxCell id="4fzQf8-RqGM_sW67UMcs-43" value="拒绝" style="text;html=1;align=center;verticalAlign=middle;resizable=0;points=[];autosize=1;strokeColor=none;fillColor=none;" vertex="1" parent="1">
          <mxGeometry x="110" y="430" width="40" height="20" as="geometry" />
        </mxCell>
        <mxCell id="4fzQf8-RqGM_sW67UMcs-44" value="&lt;div&gt;&lt;font style=&quot;font-size: 14px&quot;&gt;开发部门&lt;/font&gt;&lt;/div&gt;&lt;div&gt;&lt;font style=&quot;font-size: 14px&quot;&gt;领导审批&lt;/font&gt;&lt;/div&gt;" style="whiteSpace=wrap;html=1;" vertex="1" parent="1">
          <mxGeometry x="340" y="480" width="80" height="40" as="geometry" />
        </mxCell>
        <mxCell id="4fzQf8-RqGM_sW67UMcs-46" value="是" style="text;html=1;align=center;verticalAlign=middle;resizable=0;points=[];autosize=1;strokeColor=none;fillColor=none;" vertex="1" parent="1">
          <mxGeometry x="259" y="480" width="30" height="20" as="geometry" />
        </mxCell>
        <mxCell id="4fzQf8-RqGM_sW67UMcs-47" value="否" style="text;html=1;align=center;verticalAlign=middle;resizable=0;points=[];autosize=1;strokeColor=none;fillColor=none;" vertex="1" parent="1">
          <mxGeometry x="190" y="540" width="30" height="20" as="geometry" />
        </mxCell>
        <mxCell id="4fzQf8-RqGM_sW67UMcs-48" value="" style="endArrow=classic;html=1;rounded=0;exitX=0.5;exitY=1;exitDx=0;exitDy=0;strokeColor=#00FF00;" edge="1" parent="1" source="4fzQf8-RqGM_sW67UMcs-44">
          <mxGeometry width="50" height="50" relative="1" as="geometry">
            <mxPoint x="290" y="610" as="sourcePoint" />
            <mxPoint x="220" y="564" as="targetPoint" />
            <Array as="points">
              <mxPoint x="380" y="564" />
            </Array>
          </mxGeometry>
        </mxCell>
        <mxCell id="4fzQf8-RqGM_sW67UMcs-49" value="通过" style="text;html=1;align=center;verticalAlign=middle;resizable=0;points=[];autosize=1;strokeColor=none;fillColor=none;" vertex="1" parent="1">
          <mxGeometry x="340" y="530" width="40" height="20" as="geometry" />
        </mxCell>
        <mxCell id="4fzQf8-RqGM_sW67UMcs-52" value="&lt;div&gt;&lt;font style=&quot;font-size: 14px&quot;&gt;其他部门&lt;/font&gt;&lt;/div&gt;&lt;div&gt;&lt;font style=&quot;font-size: 14px&quot;&gt;审批&lt;/font&gt;&lt;/div&gt;" style="whiteSpace=wrap;html=1;" vertex="1" parent="1">
          <mxGeometry x="460" y="595" width="80" height="50" as="geometry" />
        </mxCell>
        <mxCell id="4fzQf8-RqGM_sW67UMcs-54" value="是" style="text;html=1;align=center;verticalAlign=middle;resizable=0;points=[];autosize=1;strokeColor=none;fillColor=none;" vertex="1" parent="1">
          <mxGeometry x="275" y="600" width="30" height="20" as="geometry" />
        </mxCell>
        <mxCell id="4fzQf8-RqGM_sW67UMcs-55" value="否" style="text;html=1;align=center;verticalAlign=middle;resizable=0;points=[];autosize=1;strokeColor=none;fillColor=none;" vertex="1" parent="1">
          <mxGeometry x="190" y="660" width="30" height="20" as="geometry" />
        </mxCell>
        <mxCell id="4fzQf8-RqGM_sW67UMcs-56" value="" style="endArrow=classic;html=1;rounded=0;exitX=0.5;exitY=1;exitDx=0;exitDy=0;strokeColor=#00FF00;" edge="1" parent="1" source="4fzQf8-RqGM_sW67UMcs-52" target="4fzQf8-RqGM_sW67UMcs-55">
          <mxGeometry width="50" height="50" relative="1" as="geometry">
            <mxPoint x="460" y="660" as="sourcePoint" />
            <mxPoint x="510" y="610" as="targetPoint" />
            <Array as="points">
              <mxPoint x="500" y="670" />
            </Array>
          </mxGeometry>
        </mxCell>
        <mxCell id="4fzQf8-RqGM_sW67UMcs-57" value="通过" style="text;html=1;align=center;verticalAlign=middle;resizable=0;points=[];autosize=1;strokeColor=none;fillColor=none;" vertex="1" parent="1">
          <mxGeometry x="500" y="650" width="40" height="20" as="geometry" />
        </mxCell>
        <mxCell id="4fzQf8-RqGM_sW67UMcs-59" value="拒绝" style="text;html=1;align=center;verticalAlign=middle;resizable=0;points=[];autosize=1;strokeColor=none;fillColor=none;" vertex="1" parent="1">
          <mxGeometry x="500" y="570" width="40" height="20" as="geometry" />
        </mxCell>
        <mxCell id="4fzQf8-RqGM_sW67UMcs-60" value="&lt;font style=&quot;font-size: 14px&quot;&gt;公司分管领导审批&lt;/font&gt;" style="whiteSpace=wrap;html=1;" vertex="1" parent="1">
          <mxGeometry x="570" y="710" width="90" height="40" as="geometry" />
        </mxCell>
        <mxCell id="4fzQf8-RqGM_sW67UMcs-62" value="是" style="text;html=1;align=center;verticalAlign=middle;resizable=0;points=[];autosize=1;strokeColor=none;fillColor=none;" vertex="1" parent="1">
          <mxGeometry x="275" y="710" width="30" height="20" as="geometry" />
        </mxCell>
        <mxCell id="4fzQf8-RqGM_sW67UMcs-63" value="" style="endArrow=classic;html=1;rounded=0;exitX=0.5;exitY=1;exitDx=0;exitDy=0;strokeColor=#00FF00;" edge="1" parent="1">
          <mxGeometry width="50" height="50" relative="1" as="geometry">
            <mxPoint x="220" y="771" as="sourcePoint" />
            <mxPoint x="690" y="360" as="targetPoint" />
            <Array as="points">
              <mxPoint x="220" y="801" />
              <mxPoint x="690" y="801" />
            </Array>
          </mxGeometry>
        </mxCell>
        <mxCell id="4fzQf8-RqGM_sW67UMcs-64" value="" style="endArrow=classic;html=1;rounded=0;exitX=0.5;exitY=1;exitDx=0;exitDy=0;strokeColor=#00FF00;" edge="1" parent="1" source="4fzQf8-RqGM_sW67UMcs-60">
          <mxGeometry width="50" height="50" relative="1" as="geometry">
            <mxPoint x="500" y="750" as="sourcePoint" />
            <mxPoint x="615" y="800" as="targetPoint" />
          </mxGeometry>
        </mxCell>
        <mxCell id="4fzQf8-RqGM_sW67UMcs-65" value="通过" style="text;html=1;align=center;verticalAlign=middle;resizable=0;points=[];autosize=1;strokeColor=none;fillColor=none;" vertex="1" parent="1">
          <mxGeometry x="610" y="760" width="40" height="20" as="geometry" />
        </mxCell>
        <mxCell id="4fzQf8-RqGM_sW67UMcs-71" value="" style="edgeStyle=orthogonalEdgeStyle;rounded=0;orthogonalLoop=1;jettySize=auto;html=1;" edge="1" parent="1" source="4fzQf8-RqGM_sW67UMcs-67" target="4fzQf8-RqGM_sW67UMcs-70">
          <mxGeometry relative="1" as="geometry" />
        </mxCell>
        <mxCell id="4fzQf8-RqGM_sW67UMcs-67" value="&lt;font style=&quot;font-size: 14px&quot;&gt;确认发布时间&lt;/font&gt;" style="whiteSpace=wrap;html=1;" vertex="1" parent="1">
          <mxGeometry x="710" y="430" width="120" height="40" as="geometry" />
        </mxCell>
        <mxCell id="4fzQf8-RqGM_sW67UMcs-69" value="&lt;font style=&quot;font-size: 14px&quot;&gt;结束&lt;/font&gt;" style="ellipse;whiteSpace=wrap;html=1;" vertex="1" parent="1">
          <mxGeometry x="40" y="810" width="100" height="60" as="geometry" />
        </mxCell>
        <mxCell id="4fzQf8-RqGM_sW67UMcs-73" value="" style="edgeStyle=orthogonalEdgeStyle;rounded=0;orthogonalLoop=1;jettySize=auto;html=1;" edge="1" parent="1" source="4fzQf8-RqGM_sW67UMcs-70" target="4fzQf8-RqGM_sW67UMcs-72">
          <mxGeometry relative="1" as="geometry" />
        </mxCell>
        <mxCell id="4fzQf8-RqGM_sW67UMcs-70" value="&lt;font style=&quot;font-size: 14px&quot;&gt;生成发布工单&lt;/font&gt;" style="whiteSpace=wrap;html=1;" vertex="1" parent="1">
          <mxGeometry x="710" y="540" width="120" height="40" as="geometry" />
        </mxCell>
        <mxCell id="4fzQf8-RqGM_sW67UMcs-72" value="&lt;font style=&quot;font-size: 14px&quot;&gt;容器部署平台&lt;/font&gt;" style="whiteSpace=wrap;html=1;" vertex="1" parent="1">
          <mxGeometry x="710" y="860" width="120" height="40" as="geometry" />
        </mxCell>
        <mxCell id="4fzQf8-RqGM_sW67UMcs-74" value="" style="endArrow=classic;html=1;rounded=0;entryX=1;entryY=0.5;entryDx=0;entryDy=0;" edge="1" parent="1" target="4fzQf8-RqGM_sW67UMcs-69">
          <mxGeometry width="50" height="50" relative="1" as="geometry">
            <mxPoint x="770" y="840" as="sourcePoint" />
            <mxPoint x="140" y="830" as="targetPoint" />
          </mxGeometry>
        </mxCell>
        <mxCell id="4fzQf8-RqGM_sW67UMcs-75" value="&lt;font style=&quot;font-size: 14px&quot;&gt;发布单&lt;/font&gt;" style="rounded=0;whiteSpace=wrap;html=1;" vertex="1" parent="1">
          <mxGeometry x="180" y="283" width="85" height="35" as="geometry" />
        </mxCell>
        <mxCell id="4fzQf8-RqGM_sW67UMcs-83" value="" style="endArrow=none;html=1;rounded=0;exitX=0;exitY=0.25;exitDx=0;exitDy=0;strokeColor=#FF0000;" edge="1" parent="1" source="4fzQf8-RqGM_sW67UMcs-44">
          <mxGeometry width="50" height="50" relative="1" as="geometry">
            <mxPoint x="370" y="480" as="sourcePoint" />
            <mxPoint x="310" y="430" as="targetPoint" />
            <Array as="points">
              <mxPoint x="310" y="490" />
            </Array>
          </mxGeometry>
        </mxCell>
        <mxCell id="4fzQf8-RqGM_sW67UMcs-85" value="" style="endArrow=none;html=1;rounded=0;exitX=0.5;exitY=0;exitDx=0;exitDy=0;strokeColor=#FF0000;" edge="1" parent="1" source="4fzQf8-RqGM_sW67UMcs-52">
          <mxGeometry width="50" height="50" relative="1" as="geometry">
            <mxPoint x="370" y="500" as="sourcePoint" />
            <mxPoint x="310" y="462" as="targetPoint" />
            <Array as="points">
              <mxPoint x="500" y="462" />
            </Array>
          </mxGeometry>
        </mxCell>
        <mxCell id="4fzQf8-RqGM_sW67UMcs-86" value="拒绝" style="text;html=1;align=center;verticalAlign=middle;resizable=0;points=[];autosize=1;strokeColor=none;fillColor=none;" vertex="1" parent="1">
          <mxGeometry x="270" y="460" width="40" height="20" as="geometry" />
        </mxCell>
        <mxCell id="4fzQf8-RqGM_sW67UMcs-87" value="" style="endArrow=none;html=1;rounded=0;exitX=0.5;exitY=0;exitDx=0;exitDy=0;strokeColor=#FF0000;" edge="1" parent="1" source="4fzQf8-RqGM_sW67UMcs-60">
          <mxGeometry width="50" height="50" relative="1" as="geometry">
            <mxPoint x="370" y="640" as="sourcePoint" />
            <mxPoint x="500" y="550" as="targetPoint" />
            <Array as="points">
              <mxPoint x="615" y="550" />
            </Array>
          </mxGeometry>
        </mxCell>
        <mxCell id="4fzQf8-RqGM_sW67UMcs-88" value="拒绝" style="text;html=1;align=center;verticalAlign=middle;resizable=0;points=[];autosize=1;strokeColor=none;fillColor=none;" vertex="1" parent="1">
          <mxGeometry x="610" y="680" width="40" height="20" as="geometry" />
        </mxCell>
      </root>
    </mxGraphModel>
  </diagram>
</mxfile>
